<svg id="Layer_1" data-name="Layer 1" xmlns="http://www.w3.org/2000/svg" viewBox="0 0 203.9 203.9"><defs><style>.cls-1{fill:#fff;}</style></defs><title>Instagram</title><path id="Shape" class="cls-1" d="M204.12,40.19H79.35A39.61,39.61,0,0,0,39.79,79.75V204.53a39.61,39.61,0,0,0,39.56,39.56H204.12a39.61,39.61,0,0,0,39.56-39.56V79.75c0-22.32-17.25-39.56-39.56-39.56Zm11.16,23.33h4.06V98H184.85V63.52ZM112.83,120.33c6.09-9.13,17.25-15.22,29.42-15.22s22.32,6.09,29.42,15.22c4.06,6.09,7.1,13.19,7.1,21.3,0,19.27-16.23,35.5-35.5,35.5s-35.5-16.23-35.5-35.5a30.57,30.57,0,0,1,5.07-21.3Zm111.59,83.18a19.26,19.26,0,0,1-19.27,19.27H80.36a19.26,19.26,0,0,1-19.27-19.27V120.33H91.52c-3,6.09-4.06,13.19-4.06,21.3,0,30.43,25.36,55.79,55.79,55.79s55.79-25.36,55.79-55.79a53,53,0,0,0-4.06-21.3h30.43v83.18Z" transform="translate(-39.79 -40.19)"/></svg>