<svg id="Layer_1" data-name="Layer 1" xmlns="http://www.w3.org/2000/svg" viewBox="0 0 422 67.4"><defs><style>.cls-1{fill:#591525;}</style></defs><title>Logo_Dottrar-Web_H</title><path class="cls-1" d="M500.73,243.65v-1.73q.19-8.57,8.58-8.58h14.16A43.39,43.39,0,0,1,536,234.88a29.28,29.28,0,0,1,9.59,5.11,33.83,33.83,0,0,1,9.25,11.47,32.08,32.08,0,0,1,2.22,22.3,30.89,30.89,0,0,1-3.08,7.52,32.87,32.87,0,0,1-4.91,6.5,33.64,33.64,0,0,1-6.46,5.2q-7.52,4.63-19.08,4.63H509.31q-8.58-.19-8.58-8.58V243.65Zm21,40.47a39.25,39.25,0,0,0,7.81-.63,15.91,15.91,0,0,0,5.49-2.26,17.82,17.82,0,0,0,6.07-6.65,18.9,18.9,0,0,0,2.22-9.06,18.22,18.22,0,0,0-1.54-7.56,16.36,16.36,0,0,0-4.38-5.83,20.78,20.78,0,0,0-6.79-3.76,27,27,0,0,0-8.77-1.35h-6.36v37.09Z" transform="translate(-369.33 -231.33)"/><path class="cls-1" d="M587.65,251.07a23,23,0,0,1,9.25,1.88,24,24,0,0,1,12.67,12.67,23.25,23.25,0,0,1,1.88,9.35,22.43,22.43,0,0,1-1.88,9.1,23.92,23.92,0,0,1-5.16,7.52,24.76,24.76,0,0,1-7.61,5.11,23,23,0,0,1-9.25,1.88,24.11,24.11,0,0,1-16.91-6.84,24.55,24.55,0,0,1-5.15-7.42,21.6,21.6,0,0,1-1.93-9.06,24.17,24.17,0,0,1,1.88-9.54,23.84,23.84,0,0,1,22.21-14.65Zm-9.15-18.79a6.9,6.9,0,0,1,5.15,2.13,7.35,7.35,0,0,1-5.25,12.51,7.21,7.21,0,0,1-5.25-2.13,6.84,6.84,0,0,1-2.17-5,7.14,7.14,0,0,1,2.22-5.29A7.29,7.29,0,0,1,578.49,232.28Zm9.15,31.6a10.9,10.9,0,0,0-4.34.87,11.12,11.12,0,0,0-3.52,2.36,10.46,10.46,0,0,0-2.31,3.52,11.7,11.7,0,0,0-.82,4.43,9.75,9.75,0,0,0,.87,4,10.8,10.8,0,0,0,2.36,3.37,11,11,0,0,0,3.47,2.26,10.8,10.8,0,0,0,4.19.82,10.3,10.3,0,0,0,4.19-.87,11.73,11.73,0,0,0,3.47-2.31,10.7,10.7,0,0,0,2.36-3.42,10.29,10.29,0,0,0,.87-4.19,10.55,10.55,0,0,0-.87-4.29,10.88,10.88,0,0,0-5.73-5.73A10.33,10.33,0,0,0,587.65,263.88Zm9.15-31.6a6.9,6.9,0,0,1,5.16,2.13,7.35,7.35,0,0,1-5.25,12.51,7.21,7.21,0,0,1-5.25-2.13,6.84,6.84,0,0,1-2.17-5,7.14,7.14,0,0,1,2.22-5.29A7.29,7.29,0,0,1,596.8,232.28Z" transform="translate(-369.33 -231.33)"/><path class="cls-1" d="M622,245.19v-1.45a7.79,7.79,0,0,1,1.83-5.25,6,6,0,0,1,4.63-1.88,5.89,5.89,0,0,1,4.58,2,7.41,7.41,0,0,1,1.78,5.15V252h2.79a7.08,7.08,0,0,1,4.62,1.64,5.27,5.27,0,0,1,1.74,4.14,5.38,5.38,0,0,1-1.78,4.14,6.5,6.5,0,0,1-4.58,1.64h-2.79v27.56a7.85,7.85,0,0,1-1.83,5.2,6.4,6.4,0,0,1-9.2,0,7.4,7.4,0,0,1-1.78-5.15V263.59h-.67a7.18,7.18,0,0,1-4.87-1.54,5.3,5.3,0,0,1-1.78-4.24q0-6,7.32-5.78Z" transform="translate(-369.33 -231.33)"/><path class="cls-1" d="M651.72,245.19v-1.45a7.79,7.79,0,0,1,1.83-5.25,6,6,0,0,1,4.62-1.88,5.89,5.89,0,0,1,4.58,2,7.4,7.4,0,0,1,1.78,5.15V252h2.79a7.09,7.09,0,0,1,4.63,1.64,5.27,5.27,0,0,1,1.73,4.14A5.38,5.38,0,0,1,671.9,262a6.49,6.49,0,0,1-4.58,1.64h-2.79v27.56a7.85,7.85,0,0,1-1.83,5.2,6.4,6.4,0,0,1-9.2,0,7.39,7.39,0,0,1-1.78-5.15V263.59H651a7.18,7.18,0,0,1-4.87-1.54,5.31,5.31,0,0,1-1.78-4.24q0-6,7.32-5.78Z" transform="translate(-369.33 -231.33)"/><path class="cls-1" d="M691.42,255.11a14.83,14.83,0,0,1,9.92-4,8.27,8.27,0,0,1,3.23.63,8.53,8.53,0,0,1,2.6,1.69,8.32,8.32,0,0,1,1.78,2.5,7.51,7.51,0,0,1-1.59,8.48,7.5,7.5,0,0,1-5.44,2.22,5.79,5.79,0,0,1-2.07-.29,23.86,23.86,0,0,1-2.55-1.35,5.07,5.07,0,0,0-2.5-.87,2.2,2.2,0,0,0-2.17,1.35A11.66,11.66,0,0,0,692,270v21.2a8,8,0,0,1-1.78,5.2,5.77,5.77,0,0,1-4.58,1.93,6,6,0,0,1-4.67-2,7.4,7.4,0,0,1-1.78-5.15V260.7q0-1.44,0-2.36t.1-1.54a3.71,3.71,0,0,1,.24-1.11,6.7,6.7,0,0,1,.48-1,6,6,0,0,1,5.49-3.37A6.25,6.25,0,0,1,691.42,255.11Z" transform="translate(-369.33 -231.33)"/><path class="cls-1" d="M737.09,294.33a20,20,0,0,1-5.4,3.18,16.22,16.22,0,0,1-11.75-.29,15.37,15.37,0,0,1-5.06-3.52,16.36,16.36,0,0,1-3.37-5.25,17.78,17.78,0,0,1,.1-13.1,16.57,16.57,0,0,1,15.47-10.21,16.36,16.36,0,0,1,4.67.67,28.36,28.36,0,0,1,4.87,2q0-3.56-1.3-5t-4.38-1.45a14.51,14.51,0,0,0-3.47.48l-3.08.87a12.88,12.88,0,0,1-2.26.63,10.74,10.74,0,0,1-1.69.14,4.8,4.8,0,0,1-3.61-1.44,5.06,5.06,0,0,1-1.4-3.66q0-3.76,4.24-6t11.08-2.27a27.15,27.15,0,0,1,8.62,1.3,16.08,16.08,0,0,1,6.41,3.81,12.31,12.31,0,0,1,3.13,5.69,34.28,34.28,0,0,1,.82,9.06V289.7a17.24,17.24,0,0,1-.29,3.71,6.41,6.41,0,0,1-1.16,2.36,6.22,6.22,0,0,1-5.2,2.51,6.36,6.36,0,0,1-3.47-.92A7.35,7.35,0,0,1,737.09,294.33Zm-.48-12.72a6.7,6.7,0,0,0-1.78-4.72,6.28,6.28,0,0,0-9,0,6.43,6.43,0,0,0,4.62,11,5.91,5.91,0,0,0,4.43-1.78A6.16,6.16,0,0,0,736.61,281.61Z" transform="translate(-369.33 -231.33)"/><path class="cls-1" d="M773.12,255.11a14.83,14.83,0,0,1,9.92-4,8.27,8.27,0,0,1,3.23.63,8.51,8.51,0,0,1,2.6,1.69,8.33,8.33,0,0,1,1.78,2.5,7.5,7.5,0,0,1-1.59,8.48,7.5,7.5,0,0,1-5.44,2.22,5.78,5.78,0,0,1-2.07-.29,23.83,23.83,0,0,1-2.55-1.35,5.07,5.07,0,0,0-2.5-.87,2.2,2.2,0,0,0-2.17,1.35,11.66,11.66,0,0,0-.63,4.53v21.2a8,8,0,0,1-1.78,5.2,5.77,5.77,0,0,1-4.58,1.93,6,6,0,0,1-4.67-2,7.39,7.39,0,0,1-1.78-5.15V260.7q0-1.44,0-2.36t.1-1.54a3.71,3.71,0,0,1,.24-1.11,6.69,6.69,0,0,1,.48-1,6,6,0,0,1,5.49-3.37A6.25,6.25,0,0,1,773.12,255.11Z" transform="translate(-369.33 -231.33)"/><circle class="cls-1" cx="71.12" cy="14.41" r="14.41"/><circle class="cls-1" cx="28.99" cy="38.41" r="28.99"/><circle class="cls-1" cx="83.94" cy="48.11" r="19.29"/></svg>