<?xml version="1.0" encoding="utf-8"?>
<!-- Generator: Adobe Illustrator 21.1.0, SVG Export Plug-In . SVG Version: 6.00 Build 0)  -->
<svg version="1.1" id="Layer_1" xmlns="http://www.w3.org/2000/svg" xmlns:xlink="http://www.w3.org/1999/xlink" x="0px" y="0px"
	 viewBox="0 0 45.8 33.3" style="enable-background:new 0 0 45.8 33.3;" xml:space="preserve">
<style type="text/css">
	.st0{fill:#FFFFFF;}
</style>
<path id="Shape_22_" class="st0" d="M7,11c0.6,0.4,2,1.3,4.6,3c2.6,1.7,4.6,3,5.9,3.9c0.2,0.2,0.6,0.4,0.9,0.6
	c0.6,0.4,0.9,0.6,1.3,0.7c0.4,0.2,0.7,0.4,1.1,0.7c0.4,0.2,0.9,0.4,1.3,0.6c0.4,0.2,0.7,0.2,1.1,0.2l0,0l0,0c0.4,0,0.7,0,1.1-0.2
	c0.4-0.2,0.9-0.4,1.3-0.6c0.4-0.2,0.9-0.6,1.1-0.7c0.4-0.2,0.7-0.6,1.3-0.7c0.6-0.4,0.7-0.6,0.9-0.6c1.5-0.9,5-3.2,10.6-6.9
	c1.1-0.7,2-1.7,2.8-2.6c0.7-0.9,1.1-2,1.1-3.2c0-0.9-0.4-1.7-1.1-2.4C41.7,2.1,40.9,2,39.8,2h-33C5.7,2,4.7,2.3,4,3.1
	C3.4,3.8,3.1,4.7,3.1,5.8c0,0.9,0.4,1.9,1.3,3C5.1,9.7,6,10.5,7,11z M41.7,13.3c-5,3.2-8.7,5.6-11.3,7.2c-0.9,0.6-1.5,1.1-2,1.3
	c-0.6,0.4-1.3,0.7-2.2,0.9c-0.9,0.4-1.7,0.6-2.6,0.6l0,0l0,0c-0.7,0-1.7-0.2-2.6-0.6c-0.9-0.4-1.7-0.7-2.2-0.9
	c-0.6-0.4-1.3-0.7-2-1.3c-2-1.3-5.8-3.9-11.3-7.2c-0.9-0.6-1.7-1.1-2.2-1.9v16.7c0,0.9,0.4,1.7,1.1,2.4c0.7,0.7,1.5,0.9,2.6,0.9
	h33.4c0.9,0,1.9-0.4,2.6-0.9c0.7-0.7,1.1-1.5,1.1-2.4V11.4C43.2,12.2,42.4,12.9,41.7,13.3z"/>
</svg>
