<svg id="Layer_1" data-name="Layer 1" xmlns="http://www.w3.org/2000/svg" viewBox="0 0 236.57 202.78"><defs><style>.cls-1{fill:#fff;}</style></defs><title>Twitter</title><path id="Shape" class="cls-1" d="M231.62,72.15c10.14-6.76,18-16.9,21.4-28.16a101.81,101.81,0,0,1-30.42,12.39,46.19,46.19,0,0,0-34.92-15.77c-27,0-48.44,22.53-48.44,50.69,0,4.51,0,7.89,1.13,11.27A136.8,136.8,0,0,1,40.11,49.62a52.33,52.33,0,0,0-6.76,25.91,53.28,53.28,0,0,0,21.4,42.81,40.62,40.62,0,0,1-22.53-6.76v1.13A52.07,52.07,0,0,0,71.65,163.4c-4.51,1.13-7.89,2.25-12.39,2.25a24.81,24.81,0,0,1-9-1.13,49.4,49.4,0,0,0,45.06,36A95.22,95.22,0,0,1,34.48,222c-3.38,0-7.89,0-11.27-1.13a131.48,131.48,0,0,0,74.35,22.53c89,0,138.57-77.73,138.57-145.32V91.31c9-6.76,18-15.77,23.66-27C250.77,68.77,241.76,71,231.62,72.15Z" transform="translate(-23.21 -40.61)"/></svg>